<svg 
 xmlns="http://www.w3.org/2000/svg"
 xmlns:xlink="http://www.w3.org/1999/xlink"
 width="66px" height="57px">
<path fill-rule="evenodd"  fill="rgb(0, 225, 255)"
 d="M66.000,57.000 L3.000,57.000 L1.000,57.000 L0.869,29.449 L0.869,11.238 C0.873,9.775 1.537,9.004 3.000,9.000 L19.000,9.000 L19.754,8.623 L19.955,8.623 L19.955,8.422 L19.955,7.722 L19.955,2.706 C19.961,1.243 21.537,0.004 23.000,-0.000 L45.000,-0.000 C46.461,0.004 46.993,1.536 47.000,3.000 L47.000,7.999 L47.269,8.420 L47.269,8.620 L47.469,8.620 L48.000,9.000 L64.000,9.000 C65.463,9.007 65.993,9.535 66.000,11.000 L66.000,55.000 L66.000,56.000 L66.000,57.000 L66.000,57.000 ZM3.289,32.769 L3.289,32.970 L3.000,33.000 L3.000,55.000 L3.289,54.865 L3.289,55.065 L3.489,55.065 L4.189,55.065 L33.613,55.065 L63.034,55.065 L63.734,55.065 L63.935,55.065 L63.935,54.865 L63.935,54.164 L63.935,33.670 L63.935,32.970 L63.935,32.769 L63.734,32.769 L63.000,33.000 L48.000,33.000 L44.000,33.000 L23.000,33.000 L19.000,33.000 L4.000,33.000 L3.489,32.769 L3.289,32.769 L3.289,32.769 ZM3.289,11.043 L3.289,11.243 L3.000,11.000 L3.000,29.000 L3.289,30.149 L3.289,30.349 L3.489,30.349 L3.000,31.000 L19.000,31.000 L23.000,31.000 L44.000,31.000 L48.000,31.000 L64.000,31.000 L63.734,30.349 L63.935,30.349 L63.935,30.149 L63.935,29.449 L63.935,11.944 L63.935,11.243 L63.935,11.043 L63.734,11.043 L63.034,11.043 L48.169,11.043 L43.948,11.043 L23.277,11.043 L19.054,11.043 L4.189,11.043 L3.489,11.043 L3.289,11.043 L3.289,11.043 ZM22.377,2.511 L22.377,2.711 L22.000,3.000 L22.000,7.999 L22.377,8.422 L22.377,8.623 L22.577,8.623 L23.000,9.000 L44.000,9.000 L44.648,8.623 L44.849,8.623 L44.849,8.422 L45.000,7.999 L45.000,3.000 L44.849,2.709 L44.849,2.508 L44.648,2.508 L44.000,2.000 L23.000,2.000 L22.577,2.511 L22.377,2.511 L22.377,2.511 Z"/>
</svg>