<svg 
 xmlns="http://www.w3.org/2000/svg"
 xmlns:xlink="http://www.w3.org/1999/xlink"
 width="59px" height="62px">
<path fill-rule="evenodd"  fill="rgb(0, 225, 255)"
 d="M58.605,22.476 C58.275,21.562 57.406,20.904 56.374,20.902 L55.000,21.000 L55.000,17.000 L39.687,1.169 L39.455,0.938 L39.318,0.803 L39.000,0.999 L3.000,0.999 L3.000,21.000 L2.525,20.902 C1.529,20.902 0.680,21.516 0.323,22.380 C0.214,22.643 0.148,22.932 0.142,23.238 L0.078,23.752 L-0.000,24.000 L-0.000,59.000 C0.002,59.877 0.623,60.754 1.333,61.165 C1.436,61.226 1.544,61.277 1.653,61.321 C1.777,61.369 1.908,61.409 2.041,61.437 C2.203,61.471 2.838,62.002 3.000,62.000 L56.000,62.000 C57.313,61.996 58.995,60.313 59.000,59.000 L59.000,22.999 C58.998,22.706 58.694,22.719 58.605,22.476 ZM40.000,15.999 L40.000,4.000 L52.000,15.999 L40.000,15.999 ZM2.000,25.000 L3.668,26.866 L4.097,27.218 L4.671,27.694 L5.439,28.329 L5.439,28.325 L21.029,41.178 L2.000,56.000 L2.000,25.000 ZM56.816,59.103 C56.816,59.333 56.231,60.000 56.000,60.000 L3.000,60.000 C2.766,60.001 2.083,59.335 2.083,59.103 L2.083,58.978 L22.558,42.439 L26.540,45.721 L26.539,45.723 L26.904,46.022 C26.912,46.028 26.920,46.034 26.928,46.041 L27.260,46.315 L27.279,46.291 C27.958,46.719 28.748,46.919 29.523,46.919 C30.447,46.919 31.389,46.636 32.143,46.018 L36.357,42.539 L56.816,58.980 L56.816,59.103 ZM53.000,18.000 L53.000,26.000 L36.047,40.282 L35.257,40.935 L30.910,44.521 C30.564,44.807 30.049,44.980 29.523,44.980 C28.998,44.980 28.480,44.807 28.137,44.521 L23.655,40.828 L22.865,40.177 L6.507,26.691 L5.000,26.000 L5.000,3.000 L38.000,3.000 L38.000,18.000 L53.000,18.000 ZM57.000,56.000 L37.885,41.279 L54.640,27.456 L55.231,26.966 L56.121,26.231 L57.000,26.000 L57.000,56.000 ZM55.402,24.309 L55.402,22.840 L56.371,22.840 C56.562,22.840 56.738,22.981 56.797,23.160 L55.402,24.309 ZM3.497,22.840 L3.497,24.211 L2.133,23.085 C2.207,22.941 2.361,22.838 2.525,22.840 L3.497,22.840 ZM57.285,59.106 L57.285,59.106 L57.285,59.106 L57.285,59.106 Z"/>
</svg>