<svg 
 xmlns="http://www.w3.org/2000/svg"
 xmlns:xlink="http://www.w3.org/1999/xlink"
 width="62px" height="57px">
<path fill-rule="evenodd"  fill="rgb(0, 225, 255)"
 d="M58.391,0.524 L58.000,1.000 L5.000,1.000 C2.969,1.002 0.922,2.176 0.920,4.208 L0.920,40.026 C0.922,42.060 2.969,43.999 5.000,44.000 L9.000,44.000 L8.944,53.923 C8.946,54.587 9.100,55.205 9.474,55.696 C9.846,56.192 10.437,56.477 11.056,56.477 L11.078,56.477 C11.629,56.477 12.167,56.284 12.670,55.959 L32.000,44.000 L58.000,44.000 C60.031,43.999 61.998,42.036 62.000,40.000 L62.000,4.000 C61.995,1.967 60.426,0.524 58.391,0.524 ZM11.704,54.452 C11.412,54.643 11.182,54.691 11.078,54.690 C10.883,54.629 10.840,54.790 10.734,53.905 L11.000,44.000 L28.000,44.000 L11.704,54.452 ZM60.000,40.000 C60.000,41.039 59.428,41.923 58.391,41.923 L4.605,41.923 C3.570,41.923 2.999,41.039 3.000,40.000 L3.000,4.000 C3.000,2.964 3.965,3.003 5.000,3.000 L58.000,3.000 C59.036,2.997 60.000,2.964 60.000,4.000 L60.000,40.000 ZM18.764,18.040 C16.600,18.040 14.848,19.795 14.848,21.960 C14.848,24.123 16.600,25.877 18.764,25.879 C20.928,25.877 22.682,24.123 22.682,21.960 C22.682,19.795 20.930,18.040 18.764,18.040 ZM18.765,24.089 C17.587,24.084 16.640,23.135 16.638,21.960 C16.640,20.780 17.588,19.833 18.766,19.830 C19.938,19.832 20.890,20.785 20.894,21.960 C20.890,23.135 19.938,24.084 18.765,24.089 ZM31.527,18.040 C29.363,18.040 27.610,19.795 27.610,21.960 C27.610,24.122 29.363,25.876 31.527,25.880 C33.690,25.876 35.446,24.124 35.446,21.960 C35.446,19.794 33.690,18.040 31.527,18.040 ZM31.527,24.088 C30.353,24.085 29.402,23.133 29.399,21.958 C29.402,20.783 30.354,19.832 31.528,19.830 C32.703,19.832 33.654,20.783 33.656,21.960 C33.654,23.133 32.703,24.085 31.527,24.088 ZM44.261,18.039 L44.261,18.041 C42.099,18.041 40.345,19.795 40.345,21.959 C40.345,24.123 42.099,25.877 44.261,25.877 C46.427,25.877 48.181,24.123 48.181,21.959 C48.181,19.795 46.427,18.041 44.261,18.039 ZM46.391,22.036 C46.346,23.177 45.410,24.087 44.261,24.089 C43.089,24.087 42.137,23.135 42.135,21.959 C42.137,20.785 43.089,19.833 44.261,19.831 C45.437,19.833 46.389,20.785 46.391,21.961 L46.391,22.036 Z"/>
</svg>