<svg 
 xmlns="http://www.w3.org/2000/svg"
 xmlns:xlink="http://www.w3.org/1999/xlink"
 width="35px" height="70px">
<path fill-rule="evenodd"  fill="rgb(0, 225, 255)"
 d="M16.852,69.487 C12.542,69.482 8.273,68.064 4.833,65.491 C2.515,63.725 0.068,60.550 -0.000,57.000 L-0.000,26.000 C0.007,22.127 2.830,18.992 6.705,18.983 L14.991,18.983 L15.650,18.983 L15.473,18.348 C15.319,17.810 15.094,17.284 14.797,16.784 C13.673,14.905 11.684,13.406 8.881,12.325 C8.536,12.200 7.356,11.700 6.185,10.364 C5.243,9.296 3.666,6.865 3.682,2.549 L3.679,2.173 C3.677,1.736 3.677,1.571 3.727,1.140 C3.727,0.907 4.163,0.558 4.975,0.558 C5.786,0.558 6.223,0.907 6.223,1.051 C6.182,1.571 6.160,2.076 6.160,2.547 C6.166,5.113 6.729,7.069 7.881,8.526 C8.696,9.551 9.532,9.918 9.692,9.981 C13.950,11.599 15.973,13.885 16.933,15.521 C17.653,16.746 17.944,17.853 18.059,18.562 L18.126,18.983 L18.552,18.983 L26.996,18.983 C30.868,18.992 34.026,22.148 34.036,26.021 L34.036,57.329 C33.966,60.873 31.186,63.727 28.865,65.493 C25.428,68.064 21.159,69.482 16.852,69.487 L16.852,69.487 ZM2.145,36.590 L2.000,37.000 L2.000,57.000 C1.933,58.491 3.492,61.438 6.324,63.511 C9.284,65.732 13.116,67.009 16.833,67.009 L16.869,67.009 C20.584,67.009 24.416,65.732 27.383,63.508 C30.210,61.436 32.068,58.513 32.000,57.000 L32.000,37.000 L31.555,36.590 L31.000,36.000 L3.000,36.000 L2.145,36.590 L2.145,36.590 ZM18.140,21.463 L18.140,21.964 L18.140,33.612 L18.140,34.112 L19.000,34.000 L31.000,34.000 L31.555,34.112 L32.000,34.000 L32.000,26.000 C31.997,23.490 29.512,21.005 27.000,21.000 L19.000,21.000 L18.140,21.463 L18.140,21.463 ZM6.705,21.463 C4.195,21.466 2.005,23.488 2.000,26.000 L2.000,33.000 L2.145,34.112 L3.000,34.000 L15.000,34.000 L15.662,34.112 L15.662,33.612 L15.662,21.964 L15.662,21.463 L15.000,21.000 L7.000,21.000 L6.705,21.463 Z"/>
</svg>