<svg 
 xmlns="http://www.w3.org/2000/svg"
 xmlns:xlink="http://www.w3.org/1999/xlink"
 width="51px" height="49px">
<path fill-rule="evenodd"  fill="rgb(0, 225, 255)"
 d="M49.688,36.317 L38.505,25.134 L36.978,26.661 L48.161,37.844 C48.230,37.913 48.263,38.001 48.264,38.099 C48.263,38.197 48.230,38.284 48.161,38.354 L39.891,46.622 C39.821,46.693 39.734,46.727 39.636,46.727 C39.538,46.727 39.451,46.693 39.382,46.622 L34.777,42.019 L37.662,39.134 L36.039,37.511 L33.154,40.395 L28.199,35.440 L26.671,36.967 L37.855,48.151 C38.345,48.641 38.997,48.887 39.636,48.886 L39.642,48.886 C40.280,48.886 40.929,48.639 41.418,48.151 L49.688,39.880 C50.178,39.388 50.425,38.738 50.424,38.099 C50.425,37.458 50.178,36.808 49.688,36.317 ZM12.293,22.589 L13.820,21.062 L10.396,17.637 L13.281,14.751 L11.657,13.129 L8.772,16.014 L4.166,11.409 C4.098,11.339 4.064,11.252 4.063,11.154 C4.064,11.056 4.098,10.969 4.166,10.900 L12.437,2.630 C12.506,2.560 12.593,2.527 12.692,2.526 C12.790,2.527 12.877,2.560 12.946,2.630 L22.600,12.282 L24.127,10.756 L14.473,1.102 C13.983,0.612 13.332,0.365 12.692,0.366 C12.052,0.365 11.401,0.612 10.910,1.104 L2.640,9.372 C2.149,9.863 1.903,10.515 1.904,11.154 C1.903,11.794 2.149,12.445 2.640,12.935 L12.293,22.589 ZM49.149,10.901 C49.149,10.261 48.902,9.609 48.412,9.119 L40.142,0.849 C39.652,0.358 39.000,0.112 38.361,0.113 C37.721,0.111 37.069,0.358 36.579,0.849 L2.354,35.075 L2.355,35.075 C1.882,35.545 1.638,36.165 1.621,36.781 C1.484,36.886 1.367,37.007 1.288,37.136 C1.046,37.501 0.976,37.872 0.954,38.243 L0.578,46.310 L0.578,46.310 C0.576,46.355 0.576,46.394 0.576,46.427 C0.573,47.069 0.830,47.678 1.263,48.108 C1.691,48.539 2.297,48.796 2.936,48.796 L2.943,48.796 C2.989,48.796 3.036,48.794 3.087,48.791 L3.087,48.789 L3.091,48.791 L11.031,48.324 C11.406,48.298 11.776,48.219 12.138,47.973 C12.265,47.893 12.384,47.776 12.486,47.640 C13.099,47.621 13.716,47.378 14.187,46.907 L48.412,12.682 C48.902,12.191 49.149,11.541 49.149,10.901 ZM2.967,46.635 L2.967,46.635 C2.961,46.635 2.952,46.637 2.943,46.637 C2.787,46.618 2.754,46.585 2.736,46.427 L2.735,46.427 L2.736,46.418 L3.065,39.347 L6.489,42.772 L9.942,46.225 L2.967,46.635 ZM46.885,11.155 L12.660,45.381 C12.591,45.450 12.504,45.483 12.406,45.484 C12.307,45.483 12.221,45.450 12.151,45.381 L3.881,37.111 C3.811,37.041 3.779,36.955 3.777,36.856 C3.779,36.757 3.811,36.671 3.881,36.601 L38.107,2.377 C38.175,2.307 38.261,2.273 38.361,2.272 C38.459,2.273 38.545,2.307 38.615,2.377 L46.885,10.646 C46.954,10.715 46.988,10.803 46.989,10.901 C46.988,10.998 46.954,11.086 46.885,11.155 Z"/>
</svg>