<svg 
 xmlns="http://www.w3.org/2000/svg"
 xmlns:xlink="http://www.w3.org/1999/xlink"
 width="60px" height="59px">
<path fill-rule="evenodd"  fill="rgb(0, 225, 255)"
 d="M56.798,35.478 C58.032,35.227 59.041,33.991 59.041,32.733 L59.041,26.267 C59.041,25.008 58.830,23.935 58.572,23.883 C58.314,23.831 57.094,23.582 55.860,23.332 L53.910,22.936 C52.676,22.684 51.478,21.970 51.246,21.348 C51.014,20.726 50.846,18.296 51.542,17.247 L53.176,14.778 C53.871,13.728 53.712,12.141 52.821,11.251 L48.249,6.679 C47.359,5.789 45.771,5.629 44.722,6.324 L42.213,7.986 C41.163,8.681 39.823,9.028 39.236,8.758 C38.648,8.488 36.830,6.893 36.579,5.659 L35.978,2.701 C35.727,1.467 34.492,0.458 33.233,0.458 L26.767,0.458 C25.508,0.458 24.273,1.467 24.022,2.701 L23.415,5.694 C23.164,6.928 22.463,8.121 21.859,8.346 C21.254,8.572 18.869,8.714 17.820,8.017 L15.277,6.327 C14.229,5.630 12.643,5.787 11.752,6.677 L7.178,11.251 C6.288,12.142 6.130,13.728 6.827,14.776 L8.518,17.319 C9.215,18.366 9.563,19.702 9.293,20.287 C9.022,20.870 7.423,22.676 6.189,22.924 L3.203,23.524 C1.969,23.772 0.959,25.006 0.959,26.264 L0.959,32.735 C0.959,33.994 1.969,35.227 3.203,35.475 L6.154,36.069 C7.388,36.317 8.583,37.025 8.810,37.641 C9.036,38.257 9.186,40.675 8.489,41.723 L6.827,44.223 C6.130,45.271 6.288,46.857 7.178,47.747 L11.752,52.322 C12.643,53.212 14.229,53.370 15.277,52.673 L17.736,51.038 C18.785,50.340 20.135,50.000 20.738,50.282 C21.339,50.563 23.197,52.181 23.445,53.416 L24.025,56.297 C24.273,57.532 25.506,58.541 26.766,58.541 L33.235,58.541 C34.494,58.541 35.727,57.532 35.975,56.297 L36.548,53.451 C36.796,52.216 37.518,51.017 38.152,50.783 C38.787,50.550 41.247,50.374 42.296,51.069 L44.722,52.676 C45.771,53.371 47.359,53.211 48.249,52.320 L52.821,47.748 C53.712,46.859 53.871,45.271 53.177,44.222 L51.570,41.795 C50.875,40.746 50.536,39.391 50.817,38.785 C51.098,38.178 52.712,36.308 53.946,36.057 L56.798,35.478 ZM48.280,41.070 C48.670,41.659 49.538,42.970 50.209,43.984 C50.880,44.998 50.702,46.555 49.811,47.446 L47.947,49.310 C47.056,50.200 45.499,50.380 44.485,49.709 C43.472,49.038 42.161,48.170 41.572,47.780 C40.983,47.389 39.796,47.461 38.935,47.938 C38.935,47.938 38.935,47.938 38.106,48.295 C37.919,48.376 37.729,48.450 37.539,48.526 C36.712,48.852 36.712,48.852 36.712,48.852 C35.762,49.124 34.871,49.912 34.732,50.602 C34.593,51.295 34.283,52.835 34.042,54.028 C33.802,55.221 32.576,56.198 31.316,56.198 L28.683,56.198 C27.424,56.198 26.197,55.217 25.956,54.019 C25.715,52.821 25.404,51.274 25.264,50.582 C25.124,49.889 24.232,49.094 23.281,48.816 C23.281,48.816 23.281,48.816 22.453,48.484 C22.273,48.411 22.092,48.338 21.914,48.260 C21.090,47.901 21.090,47.901 21.090,47.901 C20.232,47.423 19.050,47.352 18.464,47.741 C17.877,48.131 16.559,49.008 15.535,49.689 C14.510,50.370 12.943,50.199 12.053,49.309 L10.191,47.448 C9.301,46.557 9.134,44.985 9.820,43.953 C10.506,42.920 11.388,41.595 11.779,41.007 C12.170,40.418 12.101,39.230 11.625,38.368 C11.625,38.368 11.625,38.368 11.271,37.539 C11.205,37.380 11.145,37.220 11.081,37.061 C10.752,36.233 10.752,36.233 10.752,36.233 C10.480,35.282 9.690,34.391 9.000,34.251 C8.309,34.113 6.744,33.798 5.523,33.552 C4.302,33.306 3.302,32.075 3.302,30.816 L3.302,28.184 C3.302,26.924 4.306,25.693 5.532,25.445 C6.758,25.199 8.328,24.883 9.020,24.743 C9.713,24.605 10.509,23.711 10.789,22.759 C10.789,22.759 10.789,22.759 11.123,21.931 C11.181,21.788 11.237,21.643 11.298,21.501 C11.654,20.674 11.654,20.674 11.654,20.674 C12.131,19.812 12.201,18.628 11.811,18.040 C11.419,17.453 10.531,16.116 9.836,15.071 C9.142,14.026 9.301,12.442 10.191,11.552 L12.053,9.690 C12.943,8.800 14.527,8.640 15.572,9.335 C16.617,10.031 17.954,10.919 18.541,11.309 C19.128,11.700 20.314,11.630 21.174,11.153 C21.174,11.153 21.174,11.153 22.001,10.797 C22.137,10.740 22.274,10.686 22.411,10.630 C23.241,10.295 23.241,10.295 23.241,10.295 C24.193,10.013 25.088,9.217 25.229,8.523 C25.371,7.829 25.690,6.258 25.939,5.032 C26.188,3.805 27.422,2.802 28.681,2.802 L31.319,2.802 C32.578,2.802 33.812,3.801 34.060,5.023 C34.307,6.245 34.626,7.810 34.766,8.502 C34.906,9.194 35.801,9.984 36.752,10.259 C36.752,10.259 36.752,10.259 37.581,10.588 C37.727,10.646 37.874,10.701 38.019,10.762 C38.850,11.115 38.850,11.115 38.850,11.115 C39.715,11.592 40.904,11.663 41.494,11.272 C42.085,10.881 43.413,10.002 44.448,9.317 C45.482,8.631 47.056,8.799 47.947,9.690 L49.811,11.553 C50.702,12.444 50.873,14.012 50.193,15.039 C49.513,16.066 48.638,17.387 48.249,17.975 C47.859,18.563 47.933,19.748 48.411,20.608 C48.411,20.608 48.411,20.608 48.769,21.433 C48.840,21.598 48.909,21.765 48.975,21.931 C49.310,22.761 49.310,22.761 49.310,22.761 C49.590,23.714 50.385,24.609 51.079,24.750 C51.771,24.891 53.319,25.205 54.519,25.449 C55.717,25.693 56.698,26.922 56.698,28.182 L56.698,30.818 C56.698,32.078 55.722,33.306 54.527,33.548 C53.333,33.791 51.791,34.105 51.099,34.246 C50.408,34.386 49.619,35.279 49.346,36.231 C49.346,36.231 49.346,36.231 49.018,37.058 C48.945,37.242 48.873,37.425 48.795,37.605 C48.440,38.434 48.440,38.434 48.440,38.434 C47.962,39.295 47.890,40.481 48.280,41.070 ZM30.049,20.079 C24.819,20.081 20.581,24.319 20.580,29.548 C20.581,34.778 24.819,39.017 30.049,39.017 C35.279,39.017 39.517,34.778 39.518,29.548 C39.517,24.319 35.279,20.081 30.049,20.079 ZM30.049,36.675 C26.114,36.668 22.930,33.484 22.923,29.548 C22.930,25.614 26.114,22.429 30.049,22.423 C33.984,22.429 37.168,25.614 37.175,29.548 C37.168,33.484 33.984,36.668 30.049,36.675 Z"/>
</svg>