<svg 
 xmlns="http://www.w3.org/2000/svg"
 xmlns:xlink="http://www.w3.org/1999/xlink"
 width="56px" height="47px">
<path fill-rule="evenodd"  fill="rgb(0, 225, 255)"
 d="M38.000,47.000 L17.000,47.000 L17.000,45.000 L39.000,45.000 L39.000,47.000 L39.000,47.000 L38.000,47.000 ZM52.000,38.000 L4.000,38.000 C1.681,37.993 0.007,36.319 -0.000,34.000 L-0.000,4.000 C0.007,1.681 1.680,0.007 4.000,-0.000 L52.000,-0.000 C54.319,0.007 55.993,1.679 56.000,4.000 L56.000,34.000 C55.993,36.319 54.251,38.097 51.931,38.104 L51.933,38.104 L52.000,38.000 ZM4.066,1.877 C3.089,1.879 2.001,3.024 2.000,4.000 L2.000,34.000 C2.001,34.976 3.023,35.998 4.000,36.000 L52.000,36.000 C52.977,35.998 53.999,34.976 54.000,34.000 L54.000,4.000 C53.999,3.023 52.911,1.879 51.934,1.877 L4.067,1.877 L4.066,1.877 L4.066,1.877 Z"/>
</svg>